<svg width="27" height="27" viewBox="0 0 27 27" fill="none" xmlns="http://www.w3.org/2000/svg">
<path d="M23.625 4.64063H3.375C3.03934 4.64062 2.71742 4.77397 2.48007 5.01132C2.24272 5.24867 2.10938 5.57059 2.10938 5.90625V20.25C2.10938 20.8094 2.33161 21.346 2.7272 21.7416C3.12278 22.1371 3.65931 22.3594 4.21875 22.3594H22.7812C23.3407 22.3594 23.8772 22.1371 24.2728 21.7416C24.6684 21.346 24.8906 20.8094 24.8906 20.25V5.90625C24.8906 5.57059 24.7573 5.24867 24.5199 5.01132C24.2826 4.77397 23.9607 4.64063 23.625 4.64063ZM20.3713 7.17188L13.5 13.4705L6.62871 7.17188H20.3713ZM4.64062 19.8281V8.78344L12.6446 16.1209C12.8781 16.3349 13.1833 16.4537 13.5 16.4537C13.8167 16.4537 14.1219 16.3349 14.3554 16.1209L22.3594 8.78344V19.8281H4.64062Z" fill="#EF8103"/>
</svg>
