<svg width="41" height="40" viewBox="0 0 41 40" fill="none" xmlns="http://www.w3.org/2000/svg">
<path d="M33.9198 9.32475C33.9198 7.99536 32.8179 6.92195 31.4633 6.92195C30.1087 6.92195 29.0059 7.99536 29.0059 9.32475C29.0059 10.6492 30.1087 11.7227 31.4633 11.7227C32.8179 11.7227 33.9198 10.6492 33.9198 9.32475Z" fill="url(#paint0_linear_823_1593)"/>
<path d="M37.1929 28.0807C37.1019 30.0309 36.7683 31.0904 36.4914 31.7942C36.1194 32.7273 35.6756 33.3944 34.9559 34.0942C34.2442 34.794 33.5619 35.2269 32.6076 35.5867C31.8879 35.8615 30.8001 36.1886 28.8057 36.2816C26.6495 36.3745 26.0106 36.3943 20.5428 36.3943C15.0801 36.3943 14.4361 36.3745 12.2799 36.2816C10.2855 36.1886 9.20286 35.8615 8.48307 35.5867C7.52378 35.2269 6.84652 34.794 6.13082 34.0942C5.41004 33.3944 4.96629 32.7273 4.59934 31.7942C4.32231 31.0904 3.98372 30.0309 3.89775 28.0807C3.79267 25.9725 3.77341 25.3379 3.77341 20.0025C3.77341 14.6562 3.79267 14.0265 3.89775 11.9182C3.98372 9.96814 4.32231 8.90956 4.59934 8.19983C4.96629 7.26778 5.41004 6.60453 6.13082 5.90474C6.84652 5.20598 7.52378 4.77202 8.48307 4.40834C9.20286 4.13257 10.2855 3.81033 12.2799 3.71744C14.4361 3.62448 15.0801 3.60075 20.5428 3.60075C26.0106 3.60075 26.6495 3.62448 28.8057 3.71744C30.8001 3.81033 31.8879 4.13257 32.6076 4.40834C33.5619 4.77202 34.2442 5.20598 34.9559 5.90474C35.6756 6.60453 36.1194 7.26778 36.4914 8.19983C36.7683 8.90956 37.1019 9.96814 37.1929 11.9182C37.293 14.0265 37.3172 14.6562 37.3172 20.0025C37.3172 25.3379 37.293 25.9725 37.1929 28.0807ZM40.8756 11.7542C40.7755 9.62314 40.4318 8.16721 39.9213 6.89913C39.4017 5.58353 38.7052 4.46861 37.5649 3.35368C36.4298 2.24372 35.2895 1.56268 33.944 1.04873C32.642 0.554501 31.158 0.214462 28.9775 0.121578C26.7971 0.0187569 26.1006 0 20.5428 0C14.9901 0 14.2886 0.0187569 12.1081 0.121578C9.93267 0.214462 8.44971 0.554501 7.14167 1.04873C5.80125 1.56268 4.66098 2.24372 3.5258 3.35368C2.38553 4.46861 1.68901 5.58353 1.16437 6.89913C0.658906 8.16721 0.315234 9.62314 0.210078 11.7542C0.115081 13.8862 0.0908203 14.5682 0.0908203 20.0025C0.0908203 25.4318 0.115081 26.1128 0.210078 28.2448C0.315234 30.3719 0.658906 31.8268 1.16437 33.1009C1.68901 34.4115 2.38553 35.5314 3.5258 36.6414C4.66098 37.7513 5.80125 38.4373 7.14167 38.9503C8.44971 39.4445 9.93267 39.7806 12.1081 39.8784C14.2886 39.9763 14.9901 40 20.5428 40C26.1006 40 26.7971 39.9763 28.9775 39.8784C31.158 39.7806 32.642 39.4445 33.944 38.9503C35.2895 38.4373 36.4298 37.7513 37.5649 36.6414C38.7052 35.5314 39.4017 34.4115 39.9213 33.1009C40.4318 31.8268 40.7755 30.3719 40.8756 28.2448C40.9757 26.1128 40.9999 25.4318 40.9999 20.0025C40.9999 14.5682 40.9757 13.8862 40.8756 11.7542Z" fill="url(#paint1_linear_823_1593)"/>
<path d="M20.5429 26.6633C16.7794 26.6633 13.7256 23.6822 13.7256 20.0024C13.7256 16.3166 16.7794 13.3316 20.5429 13.3316C24.3074 13.3316 27.3653 16.3166 27.3653 20.0024C27.3653 23.6822 24.3074 26.6633 20.5429 26.6633ZM20.5429 9.72593C14.7415 9.72593 10.043 14.3299 10.043 20.0024C10.043 25.67 14.7415 30.269 20.5429 30.269C26.3443 30.269 31.0479 25.67 31.0479 20.0024C31.0479 14.3299 26.3443 9.72593 20.5429 9.72593Z" fill="url(#paint2_linear_823_1593)"/>
<defs>
<linearGradient id="paint0_linear_823_1593" x1="0.459828" y1="39.5865" x2="36.7583" y2="2.46321" gradientUnits="userSpaceOnUse">
<stop stop-color="#FFD521"/>
<stop offset="0.05" stop-color="#FFD521"/>
<stop offset="0.501119" stop-color="#F50000"/>
<stop offset="0.95" stop-color="#B900B4"/>
<stop offset="0.950079" stop-color="#B900B4"/>
<stop offset="1" stop-color="#B900B4"/>
</linearGradient>
<linearGradient id="paint1_linear_823_1593" x1="0.459815" y1="39.6362" x2="36.7881" y2="2.48235" gradientUnits="userSpaceOnUse">
<stop stop-color="#FFD521"/>
<stop offset="0.05" stop-color="#FFD521"/>
<stop offset="0.501119" stop-color="#F50000"/>
<stop offset="0.95" stop-color="#B900B4"/>
<stop offset="0.950079" stop-color="#B900B4"/>
<stop offset="1" stop-color="#B900B4"/>
</linearGradient>
<linearGradient id="paint2_linear_823_1593" x1="0.469515" y1="39.6372" x2="36.789" y2="2.49221" gradientUnits="userSpaceOnUse">
<stop stop-color="#FFD521"/>
<stop offset="0.05" stop-color="#FFD521"/>
<stop offset="0.501119" stop-color="#F50000"/>
<stop offset="0.95" stop-color="#B900B4"/>
<stop offset="0.950079" stop-color="#B900B4"/>
<stop offset="1" stop-color="#B900B4"/>
</linearGradient>
</defs>
</svg>
